<svg id="Calque_1" data-name="Calque 1" xmlns="http://www.w3.org/2000/svg" viewBox="0 0 867.82 328.87"><defs><style>.cls-1{fill:#eb5a2e;}.cls-2,.cls-3,.cls-4,.cls-6{fill:#fff;}.cls-3{font-size:60.35px;}.cls-3,.cls-4,.cls-6{font-family:NotoSans-SemiCondensedExtraBold, Noto Sans;font-weight:700;}.cls-4{font-size:112.92px;}.cls-5{letter-spacing:-0.01em;}.cls-6{font-size:34.27px;}</style></defs><title>banniere</title><rect class="cls-1" width="867.82" height="328.87"/><path class="cls-2" d="M51,279a8.14,8.14,0,0,1-1.5-4.85c0-3.11,0-5.88-1.14-7.66s-4.42-6.32-5.86-10.08-2.78-7-3.45-7.12-2.87,8.31-1.58,13.52,2.22,6,2.67,7.52-.23,2.85.35,6.1a42,42,0,0,0,2.38,7.22c.16.62-.53,1.56-1.24,2.24a16.52,16.52,0,0,1-3.62,2c-.93.41-1.78.52-1.61,1a5,5,0,0,0,1.46,2.59,4.86,4.86,0,0,0,2.81.62c.67,0,1.07-2.38,1.87-2.62a43.72,43.72,0,0,1,5.09-1.55c.69,0,2.57,1.15,5.13.23a7.67,7.67,0,0,1,5-.51c1.61.3,5.2,1.58,5.57,1.47s-.61-1.64-1.47-2.27c-1.25-.92-1.6-1-2.46-1.73s-2.86-1.81-3.59-1.66a7.06,7.06,0,0,1,1.69-2.54c1-.75,1.9-1.95,2.45-2.14s1.51-.29,1.63-.5-2-.32-2-.32-.69-1.34-3.42-1.15S51.81,278.62,51,279Z" transform="translate(7.85 8.34)"/><path class="cls-2" d="M60.58,214s-5.11-3.32-6.52-6.75-3.6-7.12-6.31-8.35-9.83-5.07-14.22-6-4.53.26-2.37,1.55c4.49,2.67,5.55,5.26,6.79,8.05s3.13,10.46,7.31,13.48,7.18,4.72,7.47,6.16a2.2,2.2,0,0,1-.78,2.2s-3.86,2.51-5.09,2.77-1.27,1.45.18,4.14,3.32,3.81,6.24,2.93,2.71-.26,2.9-2.44-.73-3.38.48-4.24S58.77,225.74,60,226s11,6.82,15.23,6.85,3.78-.57,6.4.52,8.2,6.57,9.64,5.76-2.54-5-5.37-8.49-6.88-8.19-8.82-8.71-8.77-1-9.88-2.9a4.22,4.22,0,0,1,1.61-1.65c1-.53,2.09-.46,3-1.2a3.81,3.81,0,0,1,2.2-.7,3,3,0,0,0-1.5-.59c-.66,0-2.1-2.59-5-1.93s-3.78,1.09-4.65,1.22A8.7,8.7,0,0,1,60.58,214Z" transform="translate(7.85 8.34)"/><path class="cls-2" d="M193.66,236.06s-2-2.58-4.53-2-4.22,1.51-5.73,1.38-7.68-1.38-9.7-7.56.76-15.74-4.41-17.88-19.39-4.91-35.64-3.27-17.63,1.26-12.47,5,13.47,4.91,16.24,4.91,8.81.63,11.21,2.64,3.75,6.67,7.41,13.35,8.2,14,7.95,16.24-3.15,5-6.42,6.17-6,1.76-5.41,2.9,4.16,2.64,5.67,3.78,3.53,3,4.41,1.76,2.9-5.29,6.67-6.42,5.92-.63,12.09-4.16,10.06-9.22,10.81-10.1,3.29.66,4.55,2.17,3,5.54,6.55,8.19,4.66,7.3,7.3,8.06,1.64-10.7,1.51-16.37-.63-8.44-2.52-11.21-4-3.4-5.67-2.27S195.67,235.94,193.66,236.06Z" transform="translate(7.85 8.34)"/><path class="cls-2" d="M127.09,87.35s.68-6.08-8.26-14S95.51,46.42,94.67,42.14s-4.81-11.85-5.09-13.75-3.71,2.41-1.84,8.8S92,50.49,92.28,54.42s3.14,17.86,13.6,25.42,15.42,11.56,14.63,13a5.21,5.21,0,0,1-6.15,1.73c-2.53-1.11-8.86-5.29-9.84-3.95s-.07,15.56,7.77,20.16,17.61,3.68,19.05,2.86-5.44-3.73-3.77-6.1,5.12-.2,7.71-1.5,8.21,1.06,9.72,1.48-.39-1.52-.39-1.52,12.07,3.94,17,5.73,17.69,2.68,21,4.62,33.71,6.72,35.58,4.63c1.17-1.31-4.46-1.43-9.32-2.18s-20.14-4.8-25.39-8.48-13.09-8.29-16.75-9.71S151.41,99,146.93,98.31A60.47,60.47,0,0,1,140,97s-1.93-4-4.07-5.78S127.09,87.35,127.09,87.35Z" transform="translate(7.85 8.34)"/><path class="cls-2" d="M86.68,159.07A16.37,16.37,0,0,1,85,149c.75-6.2,1.59-11.72-.22-15.56s-7.12-13.78-9-21.66-3.65-14.78-5-15.11-7.93,15.78-6.77,26.51,2.82,12.58,3.3,15.69-1.22,5.63-.93,12.24,2.64,13.75,2.8,15-1.48,3-3.07,4.13-5.78,2.48-7.75,3-3.7.56-3.49,1.61.57,4.1,2.21,5.55a9.78,9.78,0,0,0,5.44,2c1.35.12,2.78-4.45,4.42-4.72s9.18-1.94,10.56-1.72,4.82,3,10.17,1.84,7-.7,10.14.33,9.93,4.54,10.71,4.42-.79-3.43-2.33-4.91c-2.25-2.16-2.93-2.4-4.43-4.1s-5.22-4.38-6.7-4.26c0,0,1.87-3.38,4-4.62s4.3-3.37,5.46-3.6,3.09-.18,3.39-.57-4-1.18-4-1.18-1-2.85-6.5-3.2S88.46,158.56,86.68,159.07Z" transform="translate(7.85 8.34)"/><path class="cls-2" d="M269.55,186.76s-12.52-4.05-17.47-10.45-11.67-12.89-18-13.92-23.3-5-32.93-4.55-9.19,3.14-4,4.6c10.86,3,14.59,7.88,18.8,13s12.7,20.17,23.11,24.12,17.62,5.81,19.08,8.67a4.81,4.81,0,0,1-.31,5.07s-6.46,7.49-8.83,8.73-1.75,3.78,2.83,8.59,9.13,6.1,14.62,2.58,5.44-2.1,4.53-6.8-3.53-6.69-1.54-9.17,3.34-4.85,6-5,26.74,8,35.51,5.68,7.46-3.36,13.51-2.56,20.84,9.11,23.32,6.58-8.26-9.14-16.13-14.75S312.64,194,308.32,194s-18.68,3-22.11-.44a9.08,9.08,0,0,1,2.33-4.4c1.82-1.7,4-2.17,5.51-4.24a8,8,0,0,1,4.12-2.73,6.48,6.48,0,0,0-3.45-.38c-1.36.43-5.87-4.23-11.41-1.2s-7.14,4.45-8.86,5.22A18.29,18.29,0,0,1,269.55,186.76Z" transform="translate(7.85 8.34)"/><path class="cls-2" d="M120.42,281.38a10.44,10.44,0,0,1,4.06-1.34,4.85,4.85,0,0,1,2.62.72,3.46,3.46,0,0,0,1.59.46c.51,0-.05.31-.67.62s-1.23,1.64-2.31,2.52-3.8,5.19-6.53,6.53-6,1.65-7.76,2.62-3.34,3.8-4.16,4.11-3-2.78-3.8-3.86,1.49-2.16,3.08-2.31,3.29-1.59,2.42-2-6.53-8.69-7.5-11.26S99.34,266,97.65,263s-1.08-9.56-.41-9.82,4.47,5.55,6,7.56,2.3,3.14,2.6,3.19.74-1.44.74-2.93-.36-3.65,3.34,1.13,8,7.25,7.71,9.77a34.93,34.93,0,0,0,0,6.58,25.31,25.31,0,0,0,.62,3.6A10,10,0,0,0,120.42,281.38Z" transform="translate(7.85 8.34)"/><path class="cls-2" d="M278.28,89.78s-6.52-3.17-10.71-12.16-7.67-17.14-13.34-20.79S233.09,44.21,224,35.14s-17.3-16.87-19.35-16.21,2.53,27.93,13.08,41.41S232,74.95,235.3,78.73s3.07,8.61,9,17.29,15.08,16.32,16.37,17.9.49,5.24-.68,8.14-5.72,8.18-7.9,10.6-4.51,3.85-3.35,5.1,4.2,5,7.63,5.64,7.08-.91,9-1.89,0-8.33,2-10.08,10.76-10.3,12.8-11.18,9,0,15.25-6,8.85-6.81,13.94-8.06,17.2-2.2,18.15-3-3.93-4-7.25-4.67c-4.85-1-6-.79-9.41-1.82s-10.71-1.53-12.61-.12c0,0-.31-6.12,1.59-9.62s3-8.15,4.34-9.43,4-2.84,4.09-3.61-6.38,1.75-6.38,1.75-3.77-3-11.45,1.14S280.25,87.59,278.28,89.78Z" transform="translate(7.85 8.34)"/><text class="cls-3" transform="translate(418.85 118.92)">DU 1 AU 3 MAI</text><text class="cls-4" transform="translate(416.5 210.41)"><tspan class="cls-5">A</tspan><tspan x="71.82" y="0">CTION</tspan></text><text class="cls-6" transform="translate(412.98 244.42)">OISEAUX DE NOS JARDINS</text></svg>